<svg viewBox="0 0 144 144" xmlns="http://www.w3.org/2000/svg" xmlns:bx="https://boxy-svg.com">
  <defs></defs>
  <g transform="matrix(0.302439, 0, 0, 0.302439, -3.609709, -4.036872)">
    <path style="stroke: rgb(0, 0, 0); fill: none; stroke-linecap: round; stroke-linejoin: round; stroke-width: 16px;" d="M 391.989 174.043 L 392.0698333333333 158.54633333333334 C 392.15066666666667 143.04966666666667 392.3123333333333 112.05633333333333 390.1658333333333 94.14483333333334 C 388.01933333333335 76.23333333333333 383.56466666666665 71.40366666666667 378.192 67.20299999999999 C 372.81933333333336 63.00233333333333 366.52866666666665 59.43066666666667 312.8623333333333 69.18716666666667 C 259.19599999999997 78.94366666666667 158.154 102.02833333333332 105.77666666666669 117.968 C 53.39933333333334 133.90766666666667 49.68666666666667 142.70233333333334 49.79216666666667 151.29383333333337 C 49.89766666666666 159.88533333333336 53.821333333333335 168.27366666666668 117.34333333333332 176.845 C 180.86533333333333 185.41633333333334 303.98566666666665 194.17066666666668 368.0688333333333 201.721 C 432.15200000000004 209.27133333333336 437.19800000000004 215.61766666666668 441.87850000000003 221.7805 C 446.559 227.9433333333333 450.874 233.9226666666667 453.1206666666667 265.54316666666665 C 455.36733333333336 297.16366666666664 455.54566666666665 354.42533333333336 453.94416666666666 385.23050000000006 C 452.3426666666667 416.03566666666666 448.96133333333336 420.38433333333336 445.143 424.4786666666667 C 441.32466666666664 428.57300000000004 437.06933333333336 432.413 374.5710000000001 434.43 C 312.0726666666667 436.44699999999995 191.33133333333333 436.641 128.68066666666667 434.57599999999996 C 66.03 432.51099999999997 61.47 428.18699999999995 57.09133333333333 423.4985 C 52.71266666666666 418.81 48.51533333333333 413.757 46.57816666666667 376.13183333333336 C 44.641 338.50666666666666 44.964 268.3093333333333 45.125499999999995 233.2106666666667 L 45.287 198.112" bx:d="M 391.989 174.043 U 392.474 81.063 U 379.11 66.574 U 360.238 55.859 U 57.112 125.113 U 45.974 151.497 U 57.745 176.662 U 427.106 202.925 U 442.244 221.964 U 455.189 239.902 U 455.724 411.687 U 445.58 424.733 U 432.814 436.253 U 70.59 436.835 U 56.91 423.863 U 44.318 408.704 U 45.287 198.112 1@fb00e215"></path>
    <path style="stroke: rgb(0, 0, 0); fill: none; stroke-linecap: round; stroke-linejoin: round; stroke-width: 16px;" d="M 453.309 307.31250000000006 C 454.48 315.802 454.48 329.463 453.309 338.2451666666667 C 452.138 347.0273333333334 449.796 350.93066666666664 437.0130000000001 352.58950000000004 C 424.23 354.2483333333333 401.00600000000003 353.66266666666667 388.0278333333333 348.7835 C 375.0496666666666 343.90433333333334 372.31733333333335 334.7316666666667 372.0245 325.2665 C 371.7316666666666 315.80133333333333 373.87833333333333 306.0436666666667 386.85650000000004 300.4816666666666 C 399.83466666666664 294.91966666666667 423.64433333333335 293.55333333333334 436.72016666666667 294.5291666666667 C 449.796 295.50500000000005 452.138 298.82300000000004 453.309 307.31250000000006" bx:d="M 454.48 302.141 U 454.48 343.124 U 447.454 354.834 U 377.782 353.077 U 369.585 325.559 U 376.025 296.286 U 447.454 292.187 Z 1@468851a4"></path>
  </g>
</svg>