<svg viewBox="0 0 1080 1080" xmlns="http://www.w3.org/2000/svg" xmlns:bx="https://boxy-svg.com">
  <defs>
    <radialGradient gradientUnits="userSpaceOnUse" cx="123.319" cy="884.955" r="393" id="gradient-0" gradientTransform="matrix(0.553862, 1.456468, -2.438282, 0.927221, 2407.268555, -281.371775)" spreadMethod="pad">
      <stop offset="0" style="stop-color: rgb(167, 120, 137);"></stop>
      <stop offset="1" style="stop-color: rgb(110, 80, 91);"></stop>
    </radialGradient>
    <style bx:fonts="Poppins">@import url(https://fonts.googleapis.com/css2?family=Poppins%3Aital%2Cwght%400%2C100%3B0%2C200%3B0%2C300%3B0%2C400%3B0%2C500%3B0%2C600%3B0%2C700%3B0%2C800%3B0%2C900%3B1%2C100%3B1%2C200%3B1%2C300%3B1%2C400%3B1%2C500%3B1%2C600%3B1%2C700%3B1%2C800%3B1%2C900&amp;display=swap);</style>
    <filter id="gaussian-blur-filter-0" color-interpolation-filters="sRGB" x="-500%" y="-500%" width="1000%" height="1000%" bx:preset="gaussian-blur 1 10">
      <feGaussianBlur stdDeviation="10 10" edgeMode="none"></feGaussianBlur>
    </filter>
  </defs>
  <rect width="1080" height="1080" style="fill: rgb(249, 249, 249);"></rect>
  <rect x="161.71" y="142.339" width="586.198" height="403.665" style="filter: url(#gaussian-blur-filter-0); opacity: 0.25;" rx="50.877" ry="50.877" transform="matrix(0.984808, 0.173648, -0.173648, 0.984808, 154.665894, 33.742783)"></rect>
  <rect x="161.71" y="142.339" width="586.198" height="403.665" style="fill: rgb(62, 62, 62);" rx="50.877" ry="50.877" transform="matrix(0.984808, 0.173648, -0.173648, 0.984808, 151.865112, 42.20121)"></rect>
  <rect x="161.71" y="221.509" width="586.198" height="403.665" style="filter: url(#gaussian-blur-filter-0); opacity: 0.25;" rx="50.877" ry="50.877" transform="matrix(0.984808, -0.173648, 0.173648, 0.984808, 16.335615, 192.898941)"></rect>
  <rect x="161.71" y="221.509" width="586.198" height="403.665" style="fill: rgb(113, 93, 126);" rx="50.877" ry="50.877" transform="matrix(0.984808, -0.173648, 0.173648, 0.984808, 18.588032, 201.357559)"></rect>
  <rect x="209" y="402.03" width="662" height="455.863" style="filter: url(#gaussian-blur-filter-0); opacity: 0.25;" rx="60.772" ry="60.772"></rect>
  <rect x="209" y="410.627" width="662" height="455.863" style="fill: url(#gradient-0); paint-order: fill;" rx="60.772" ry="60.772"></rect>
  <text style="fill: rgb(103, 77, 86); font-family: Poppins; font-size: 48px; font-weight: 300; text-anchor: middle; white-space: pre;" x="132.71" y="950.628" dx="668.016 -6.502" dy="-136.696 20.232">WS</text>
</svg>