<svg viewBox="0 0 1080 1080" xmlns="http://www.w3.org/2000/svg" xmlns:bx="https://boxy-svg.com">
  <defs>
    <filter id="gaussian-blur-filter-0" color-interpolation-filters="sRGB" x="-500%" y="-500%" width="1000%" height="1000%" bx:preset="gaussian-blur 1 7">
      <feGaussianBlur stdDeviation="7 7" edgeMode="none"></feGaussianBlur>
    </filter>
  </defs>
  <rect width="1080" height="1080" style="fill: rgb(237, 237, 237);" transform="matrix(-1, 0, 0, -1, 0, 0)" x="-1080" y="-1080" rx="135.936" ry="135.936"></rect>
  <g transform="matrix(1.341613, 0, 0, 1.341613, 205.414688, 179.224838)" style="filter: url(#gaussian-blur-filter-0); opacity: 0.5;">
    <path style="fill: none; stroke-linecap: round; stroke-linejoin: round; stroke-width: 23.1065px; stroke: rgb(0, 0, 0);" d="M 392.576 146.372 L 392.559 135.4871666666667 C 392.542 124.60233333333333 392.508 102.83266666666668 390.26366666666667 89.533 C 388.01933333333335 76.23333333333333 383.56466666666665 71.40366666666667 378.192 67.20299999999999 C 372.81933333333336 63.00233333333333 366.52866666666665 59.43066666666667 312.8623333333333 69.18716666666667 C 259.19599999999997 78.94366666666667 158.154 102.02833333333332 105.77666666666669 117.968 C 53.39933333333334 133.90766666666667 49.68666666666667 142.70233333333334 49.79216666666667 151.29383333333337 C 49.89766666666666 159.88533333333336 53.821333333333335 168.27366666666668 117.34333333333332 176.845 C 180.86533333333333 185.41633333333334 303.98566666666665 194.17066666666668 368.0688333333333 201.721 C 432.15200000000004 209.27133333333336 437.19800000000004 215.61766666666668 441.87850000000003 221.7805 C 446.559 227.9433333333333 450.874 233.9226666666667 452.46150000000006 271.36616666666663 C 454.049 308.80966666666666 452.90900000000005 377.71733333333333 450.099 415.22450000000003 C 447.289 452.7316666666666 442.809 458.8383333333333 438.0018333333333 465.23999999999995 C 433.1946666666667 471.64166666666665 428.06033333333335 478.33833333333337 366.7705 473.65333333333336 C 305.48066666666665 468.9683333333333 188.03533333333334 452.90166666666664 127.03266666666667 442.7063333333333 C 66.03 432.51099999999997 61.47 428.18699999999995 57.09133333333333 423.4985 C 52.71266666666666 418.81 48.51533333333333 413.757 46.55683333333334 381.3476666666667 C 44.59833333333333 348.93833333333333 44.87866666666667 289.17266666666666 45.01883333333333 259.2898333333333 L 45.159 229.407" bx:d="M 392.576 146.372 U 392.474 81.063 U 379.11 66.574 U 360.238 55.859 U 57.112 125.113 U 45.974 151.497 U 57.745 176.662 U 427.106 202.925 U 442.244 221.964 U 455.189 239.902 U 451.769 446.625 U 438.329 464.945 U 422.926 485.035 U 70.59 436.835 U 56.91 423.863 U 44.318 408.704 U 45.159 229.407 1@889c318b"></path>
    <path style="fill: none; stroke-linecap: round; stroke-linejoin: round; stroke-width: 23.1065px; stroke: rgb(0, 0, 0);" d="M 451.89900000000006 327.30649999999997 C 453.07 335.796 453.07 349.45700000000005 451.89899999999994 358.2391666666667 C 450.728 367.0213333333333 448.38599999999997 370.9246666666666 435.603 372.58349999999996 C 422.82 374.2423333333333 399.596 373.6566666666667 386.6178333333334 368.7775 C 373.6396666666667 363.89833333333337 370.9073333333333 354.7256666666667 370.61449999999996 345.26050000000004 C 370.3216666666667 335.7953333333333 372.4683333333333 326.03766666666667 385.4465 320.47566666666665 C 398.4246666666666 314.91366666666664 422.2343333333333 313.5473333333333 435.3101666666667 314.52316666666667 C 448.38599999999997 315.49899999999997 450.728 318.817 451.89900000000006 327.30649999999997" transform="matrix(0.999391, 0.034899, -0.034899, 0.999391, 12.249801, -14.157707)" bx:d="M 453.07 322.135 U 453.07 363.118 U 446.044 374.828 U 376.372 373.071 U 368.175 345.553 U 374.615 316.28 U 446.044 312.181 Z 1@e057d5d1"></path>
  </g>
  <g transform="matrix(1.341613, 0, 0, 1.341613, 205.414688, 179.224838)" style="">
    <path style="fill: none; stroke-linecap: round; stroke-linejoin: round; stroke: rgb(110, 80, 91); stroke-width: 24.5973px;" d="M 392.586 146.34 L 392.567 135.461 C 392.549 124.581 392.511 102.822 390.265 89.528 C 388.019 76.233 383.565 71.404 378.192 67.203 C 372.819 63.002 366.529 59.431 312.862 69.187 C 259.196 78.944 158.154 102.028 105.777 117.968 C 53.399 133.908 49.687 142.702 49.792 151.294 C 49.898 159.885 53.821 168.274 117.343 176.845 C 180.865 185.416 303.986 194.171 368.069 201.721 C 432.152 209.271 437.198 215.618 441.879 221.781 C 446.559 227.943 450.874 233.923 452.462 271.366 C 454.049 308.81 452.909 377.717 450.099 415.225 C 447.289 452.732 442.809 458.838 438.002 465.24 C 433.195 471.642 428.06 478.338 366.771 473.653 C 305.481 468.968 188.035 452.902 127.033 442.706 C 66.03 432.511 61.47 428.187 57.091 423.499 C 52.713 418.81 48.515 413.757 46.556 381.347 C 44.597 348.937 44.875 289.171 45.014 259.287 L 45.154 229.404" bx:d="M 392.586 146.34 U 392.474 81.063 U 379.11 66.574 U 360.238 55.859 U 57.112 125.113 U 45.974 151.497 U 57.745 176.662 U 427.106 202.925 U 442.244 221.964 U 455.189 239.902 U 451.769 446.625 U 438.329 464.945 U 422.926 485.035 U 70.59 436.835 U 56.91 423.863 U 44.318 408.704 U 45.154 229.404 1@ce264add"></path>
    <path style="fill: none; stroke-linecap: round; stroke-linejoin: round; stroke: rgb(110, 80, 91); stroke-width: 24.5973px;" d="M 451.89900000000006 327.30649999999997 C 453.07 335.796 453.07 349.45700000000005 451.89899999999994 358.2391666666667 C 450.728 367.0213333333333 448.38599999999997 370.9246666666666 435.603 372.58349999999996 C 422.82 374.2423333333333 399.596 373.6566666666667 386.6178333333334 368.7775 C 373.6396666666667 363.89833333333337 370.9073333333333 354.7256666666667 370.61449999999996 345.26050000000004 C 370.3216666666667 335.7953333333333 372.4683333333333 326.03766666666667 385.4465 320.47566666666665 C 398.4246666666666 314.91366666666664 422.2343333333333 313.5473333333333 435.3101666666667 314.52316666666667 C 448.38599999999997 315.49899999999997 450.728 318.817 451.89900000000006 327.30649999999997" transform="matrix(0.999391, 0.034899, -0.034899, 0.999391, 12.249801, -14.157707)" bx:d="M 453.07 322.135 U 453.07 363.118 U 446.044 374.828 U 376.372 373.071 U 368.175 345.553 U 374.615 316.28 U 446.044 312.181 Z 1@e057d5d1"></path>
  </g>
</svg>