<svg viewBox="0 0 1080 1080" xmlns="http://www.w3.org/2000/svg" xmlns:bx="https://boxy-svg.com">
  <defs>
    <filter id="gaussian-blur-filter-0" color-interpolation-filters="sRGB" x="-500%" y="-500%" width="1000%" height="1000%" bx:preset="gaussian-blur 1 6.5">
      <feGaussianBlur stdDeviation="6.5 6.5" edgeMode="none"></feGaussianBlur>
    </filter>
  </defs>
  <rect width="1080" height="1080" style="fill: rgb(246, 246, 246);" transform="matrix(-1, 0, 0, -1, 0, 0)" x="-1080" y="-1080" rx="137.33" ry="137.33"></rect>
  <g style="filter: url(#gaussian-blur-filter-0); opacity: 0.5;" transform="matrix(1.037282, 0, 0, 1.037282, -20.079506, -20.371241)">
    <path style="fill: none; stroke-linecap: round; stroke-linejoin: round; stroke-width: 38px; stroke: rgb(0, 0, 0);" d="M 265.994 486.996 L 265.8071666666667 527.0878333333334 C 265.62033333333335 567.1796666666667 265.24666666666667 647.3633333333333 267.87533333333334 690.8448333333334 C 270.50399999999996 734.3263333333334 276.135 741.1056666666667 282.00933333333336 747.3958333333334 C 287.88366666666667 753.686 294.0013333333334 759.4870000000001 375.8433333333334 773.1651666666667 C 457.68533333333335 786.8433333333332 615.2516666666667 808.3986666666666 697.4789999999999 814.6841666666666 C 779.7063333333332 820.9696666666665 786.5946666666665 811.9853333333334 793.044 803.3968333333332 C 799.4933333333333 794.8083333333334 805.5036666666666 786.6156666666666 809.2736666666666 736.2955000000001 C 813.0436666666666 685.9753333333333 814.5733333333333 593.5276666666667 812.4435 543.293 C 810.3136666666666 493.05833333333334 804.5243333333333 485.03666666666663 798.2448333333333 476.76866666666666 C 791.9653333333334 468.50066666666663 785.1956666666666 459.9863333333333 699.2208333333334 449.8566666666666 C 613.246 439.72700000000003 448.06600000000003 427.98199999999997 362.84400000000005 416.4825 C 277.622 404.983 272.358 393.72900000000004 272.2165 382.20250000000004 C 272.075 370.676 277.056 358.87699999999995 347.32616666666667 337.4921666666666 C 417.59633333333335 316.1073333333333 553.1556666666667 285.13666666666666 625.1551666666667 272.04716666666667 C 697.1546666666667 258.9576666666667 705.5943333333333 263.74933333333337 712.8023333333334 269.385 C 720.0103333333333 275.02066666666667 725.9866666666667 281.50033333333334 729 299.33616666666666 C 732.0133333333333 317.172 732.0636666666666 346.36400000000003 732.0888333333332 360.96 L 732.114 375.556" bx:d="M 265.994 486.996 U 264.873 727.547 U 281.766 747.885 U 300.119 765.288 U 772.818 829.954 U 793.483 803.001 U 811.514 778.423 U 816.103 501.08 U 798.735 477.015 U 778.426 451.472 U 282.886 416.237 U 267.094 382.475 U 282.037 347.078 U 688.715 254.166 U 714.034 268.541 U 731.963 287.98 U 732.114 375.556 1@277a4fc5"></path>
    <path style="fill: none; stroke-linecap: round; stroke-linejoin: round; stroke-width: 38px; stroke: rgb(0, 0, 0);" d="M 811.6918333333333 618.455 C 813.263 629.8446666666667 813.263 648.1723333333333 811.6918333333333 659.9544999999999 C 810.1206666666667 671.7366666666667 806.9783333333334 676.9733333333334 790.8898333333333 679.1295 C 774.8013333333333 681.2856666666667 745.7666666666668 680.3613333333334 729.4164999999999 673.746 C 713.0663333333333 667.1306666666667 709.4006666666668 654.8243333333334 709.0078333333335 642.1256666666667 C 708.6150000000001 629.427 711.495 616.336 727.8451666666666 608.9433333333333 C 744.1953333333335 601.5506666666666 774.0156666666667 599.8563333333333 790.497 601.235 C 806.9783333333334 602.6136666666667 810.1206666666667 607.0653333333333 811.6918333333333 618.455" transform="matrix(0.999391, 0.034899, -0.034899, 0.999391, 22.815731, -26.165273)" bx:d="M 813.263 611.517 U 813.263 666.5 U 803.836 682.21 U 716.732 679.437 U 705.735 642.518 U 714.375 603.245 U 803.836 598.162 Z 1@487b818a"></path>
  </g>
  <g transform="matrix(1.037282, 0, 0, 1.037282, -20.079506, -20.371241)">
    <path style="fill: none; stroke-linecap: round; stroke-linejoin: round; stroke: rgb(148, 107, 122); stroke-width: 38px;" d="M 265.994 486.996 L 265.8071666666667 527.0878333333334 C 265.62033333333335 567.1796666666667 265.24666666666667 647.3633333333333 267.87533333333334 690.8448333333334 C 270.50399999999996 734.3263333333334 276.135 741.1056666666667 282.00933333333336 747.3958333333334 C 287.88366666666667 753.686 294.0013333333334 759.4870000000001 375.8433333333334 773.1651666666667 C 457.68533333333335 786.8433333333332 615.2516666666667 808.3986666666666 697.4789999999999 814.6841666666666 C 779.7063333333332 820.9696666666665 786.5946666666665 811.9853333333334 793.044 803.3968333333332 C 799.4933333333333 794.8083333333334 805.5036666666666 786.6156666666666 809.2736666666666 736.2955000000001 C 813.0436666666666 685.9753333333333 814.5733333333333 593.5276666666667 812.4435 543.293 C 810.3136666666666 493.05833333333334 804.5243333333333 485.03666666666663 798.2448333333333 476.76866666666666 C 791.9653333333334 468.50066666666663 785.1956666666666 459.9863333333333 699.2208333333334 449.8566666666666 C 613.246 439.72700000000003 448.06600000000003 427.98199999999997 362.84400000000005 416.4825 C 277.622 404.983 272.358 393.72900000000004 272.2165 382.20250000000004 C 272.075 370.676 277.056 358.87699999999995 347.32616666666667 337.4921666666666 C 417.59633333333335 316.1073333333333 553.1556666666667 285.13666666666666 625.1551666666667 272.04716666666667 C 697.1546666666667 258.9576666666667 705.5943333333333 263.74933333333337 712.8023333333334 269.385 C 720.0103333333333 275.02066666666667 725.9866666666667 281.50033333333334 729 299.33616666666666 C 732.0133333333333 317.172 732.0636666666666 346.36400000000003 732.0888333333332 360.96 L 732.114 375.556" bx:d="M 265.994 486.996 U 264.873 727.547 U 281.766 747.885 U 300.119 765.288 U 772.818 829.954 U 793.483 803.001 U 811.514 778.423 U 816.103 501.08 U 798.735 477.015 U 778.426 451.472 U 282.886 416.237 U 267.094 382.475 U 282.037 347.078 U 688.715 254.166 U 714.034 268.541 U 731.963 287.98 U 732.114 375.556 1@277a4fc5"></path>
    <path style="fill: none; stroke-linecap: round; stroke-linejoin: round; stroke: rgb(148, 107, 122); stroke-width: 38px;" d="M 811.6918333333333 618.455 C 813.263 629.8446666666667 813.263 648.1723333333333 811.6918333333333 659.9544999999999 C 810.1206666666667 671.7366666666667 806.9783333333334 676.9733333333334 790.8898333333333 679.1295 C 774.8013333333333 681.2856666666667 745.7666666666668 680.3613333333334 729.4164999999999 673.746 C 713.0663333333333 667.1306666666667 709.4006666666668 654.8243333333334 709.0078333333335 642.1256666666667 C 708.6150000000001 629.427 711.495 616.336 727.8451666666666 608.9433333333333 C 744.1953333333335 601.5506666666666 774.0156666666667 599.8563333333333 790.497 601.235 C 806.9783333333334 602.6136666666667 810.1206666666667 607.0653333333333 811.6918333333333 618.455" transform="matrix(0.999391, 0.034899, -0.034899, 0.999391, 22.815731, -26.165273)" bx:d="M 813.263 611.517 U 813.263 666.5 U 803.836 682.21 U 716.732 679.437 U 705.735 642.518 U 714.375 603.245 U 803.836 598.162 Z 1@487b818a"></path>
  </g>
</svg>