<svg viewBox="0 0 1080 1080" xmlns="http://www.w3.org/2000/svg" xmlns:bx="https://boxy-svg.com">
  <defs></defs>
  <g transform="matrix(2.049955, 0, 0, 2.049955, 29.761271, -12.033379)">
    <path style="stroke: rgb(130, 130, 130); fill: none; stroke-linecap: round; stroke-linejoin: round; stroke-width: 16px;" d="M 391.999 159.719 L 392.0781666666667 146.60966666666667 C 392.1573333333333 133.50033333333332 392.3156666666667 107.28166666666668 390.1675 91.7575 C 388.01933333333335 76.23333333333333 383.56466666666665 71.40366666666667 378.192 67.20299999999999 C 372.81933333333336 63.00233333333333 366.52866666666665 59.43066666666667 312.8623333333333 69.18716666666667 C 259.19599999999997 78.94366666666667 158.154 102.02833333333332 105.77666666666669 117.968 C 53.39933333333334 133.90766666666667 49.68666666666667 142.70233333333334 49.79216666666667 151.29383333333337 C 49.89766666666666 159.88533333333336 53.821333333333335 168.27366666666668 117.34333333333332 176.845 C 180.86533333333333 185.41633333333334 303.98566666666665 194.17066666666668 368.0688333333333 201.721 C 432.15200000000004 209.27133333333336 437.19800000000004 215.61766666666668 441.87850000000003 221.7805 C 446.559 227.9433333333333 450.874 233.9226666666667 452.46150000000006 271.36616666666663 C 454.049 308.80966666666666 452.90900000000005 377.71733333333333 450.099 415.22450000000003 C 447.289 452.7316666666666 442.809 458.8383333333333 438.0018333333333 465.23999999999995 C 433.1946666666667 471.64166666666665 428.06033333333335 478.33833333333337 366.7705 473.65333333333336 C 305.48066666666665 468.9683333333333 188.03533333333334 452.90166666666664 127.03266666666667 442.7063333333333 C 66.03 432.51099999999997 61.47 428.18699999999995 57.09133333333333 423.4985 C 52.71266666666666 418.81 48.51533333333333 413.757 46.577 379.12016666666665 C 44.638666666666666 344.48333333333335 44.959333333333326 280.2626666666667 45.11966666666666 248.15233333333333 L 45.28 216.042" bx:d="M 391.999 159.719 U 392.474 81.063 U 379.11 66.574 U 360.238 55.859 U 57.112 125.113 U 45.974 151.497 U 57.745 176.662 U 427.106 202.925 U 442.244 221.964 U 455.189 239.902 U 451.769 446.625 U 438.329 464.945 U 422.926 485.035 U 70.59 436.835 U 56.91 423.863 U 44.318 408.704 U 45.28 216.042 1@5e309f69"></path>
    <path style="stroke: rgb(130, 130, 130); fill: none; stroke-linecap: round; stroke-linejoin: round; stroke-width: 16px;" d="M 451.89900000000006 327.30649999999997 C 453.07 335.796 453.07 349.45700000000005 451.89899999999994 358.2391666666667 C 450.728 367.0213333333333 448.38599999999997 370.9246666666666 435.603 372.58349999999996 C 422.82 374.2423333333333 399.596 373.6566666666667 386.6178333333334 368.7775 C 373.6396666666667 363.89833333333337 370.9073333333333 354.7256666666667 370.61449999999996 345.26050000000004 C 370.3216666666667 335.7953333333333 372.4683333333333 326.03766666666667 385.4465 320.47566666666665 C 398.4246666666666 314.91366666666664 422.2343333333333 313.5473333333333 435.3101666666667 314.52316666666667 C 448.38599999999997 315.49899999999997 450.728 318.817 451.89900000000006 327.30649999999997" transform="matrix(0.999391, 0.034899, -0.034899, 0.999391, 12.249801, -14.157707)" bx:d="M 453.07 322.135 U 453.07 363.118 U 446.044 374.828 U 376.372 373.071 U 368.175 345.553 U 374.615 316.28 U 446.044 312.181 Z 1@e057d5d1"></path>
  </g>
</svg>